<?xml version="1.0" encoding="iso-8859-1"?>
<!-- Generator: Adobe Illustrator 19.0.0, SVG Export Plug-In . SVG Version: 6.00 Build 0)  -->
<svg version="1.1" id="Layer_1" xmlns="http://www.w3.org/2000/svg" xmlns:xlink="http://www.w3.org/1999/xlink" x="0px" y="0px"
	 viewBox="0 0 360 360" style="enable-background:new 0 0 360 360;" xml:space="preserve">
<polygon id="XMLID_13_" style="fill:#C6D6EA;" points="235,265.903 235,0 5,0 5,320 184.174,320 "/>
<g id="XMLID_12_">
	<polygon id="XMLID_491_" style="fill:#DAE4F4;" points="355,305.903 355,40 115,40 115,360 301.964,360 	"/>
	<polygon id="XMLID_495_" style="fill:#C6D6EA;" points="235,40 235,360 301.964,360 355,306.429 355,40 	"/>
</g>
<g id="XMLID_11_">
	<polygon id="XMLID_496_" style="fill:#D572A8;" points="235,80 140,80 140,150 235,150 330,150 330,80 	"/>
	<rect id="XMLID_168_" x="235" y="80" style="fill:#CF599B;" width="95" height="70"/>
</g>
<rect id="XMLID_10_" x="140" y="280" style="fill:#45B7EF;" width="190" height="30"/>
<rect id="XMLID_9_" x="235" y="280" style="fill:#2FA1DB;" width="95" height="30"/>
<rect id="XMLID_8_" x="140" y="230" style="fill:#45B7EF;" width="190" height="30"/>
<rect id="XMLID_7_" x="235" y="230" style="fill:#2FA1DB;" width="95" height="30"/>
<rect id="XMLID_6_" x="140" y="180" style="fill:#45B7EF;" width="190" height="30"/>
<rect id="XMLID_4_" x="235" y="180" style="fill:#2FA1DB;" width="95" height="30"/>
<polygon id="XMLID_3_" style="fill:#A7B8CF;" points="301.964,306.429 355,306.429 301.964,360 "/>
<g>
</g>
<g>
</g>
<g>
</g>
<g>
</g>
<g>
</g>
<g>
</g>
<g>
</g>
<g>
</g>
<g>
</g>
<g>
</g>
<g>
</g>
<g>
</g>
<g>
</g>
<g>
</g>
<g>
</g>
</svg>
